<svg width="48" height="48" viewBox="0 0 48 48" fill="none" xmlns="http://www.w3.org/2000/svg">
    <path fill-rule="evenodd" clip-rule="evenodd" d="M7.22376 45.7302C6.29558 45.7302 5.5103 45.0063 5.43721 44.0823L2.27315 4.19653C2.23379 3.70176 2.40434 3.20886 2.74169 2.84294C3.07951 2.47701 3.56023 2.26758 4.05923 2.26758H43.9391C44.4381 2.26758 44.9179 2.47701 45.2557 2.84294C45.5931 3.20886 45.7646 3.70176 45.7252 4.19653L42.5607 44.0823C42.4871 45.0063 41.7028 45.7302 40.7741 45.7302H7.22376Z" fill="white"/>
    <path fill-rule="evenodd" clip-rule="evenodd" d="M43.939 2H4.05907C3.48557 2 2.93363 2.24129 2.54521 2.66251C2.15726 3.08231 1.96 3.64971 2.00545 4.21991L5.16998 44.1057C5.25385 45.1674 6.15626 46 7.2236 46H40.7745C41.8418 46 42.7442 45.1674 42.8281 44.1057L45.9926 4.21991C46.038 3.64971 45.8408 3.08231 45.4528 2.66251C45.0644 2.24129 44.5125 2 43.939 2ZM43.939 2.53694C44.8283 2.53694 45.5283 3.29315 45.458 4.17728L42.2935 44.0626C42.2307 44.854 41.5691 45.4635 40.7745 45.4635H7.2236C6.42895 45.4635 5.76737 44.854 5.70459 44.0626L2.54006 4.17728C2.46977 3.29315 3.17071 2.53694 4.05907 2.53694H43.939Z" fill="black"/>
    <path fill-rule="evenodd" clip-rule="evenodd" d="M13.2678 3.67188H4.43717C4.00564 3.67188 3.66642 4.03967 3.70062 4.46932L5.95993 32.9379H13.2678V3.67188Z" fill="#E4002B"/>
    <path fill-rule="evenodd" clip-rule="evenodd" d="M43.5601 3.67188H34.7295V32.9379H42.0369L44.2966 4.46932C44.3304 4.03967 43.9912 3.67188 43.5601 3.67188Z" fill="#E4002B"/>
    <path fill-rule="evenodd" clip-rule="evenodd" d="M18.9029 21.9264C18.9155 22.4769 19.2351 23.9294 21.0806 25.3083C21.85 25.8827 22.2033 26.1427 22.3045 26.2125L22.3035 26.2172C22.3551 26.2524 22.0313 26.2439 21.9418 26.2524C21.797 26.2664 21.3051 26.2219 20.9115 26.2945C20.5564 26.3601 20.6046 26.4459 20.5695 26.7031C20.5409 26.9069 20.5671 27.2297 20.5568 27.5052C20.547 27.7803 20.5315 27.9761 20.6482 28.1087C20.763 28.2404 20.8356 28.2614 21.3234 28.231C21.7872 28.2024 23.072 28.2015 23.227 28.1705C23.4252 28.1293 23.3934 28.2015 23.2795 28.447C23.0827 28.8682 22.4432 30.799 21.4489 32.6338C21.3098 32.8906 21.701 32.7697 22.0355 32.9304C22.6409 33.2223 22.6207 33.3033 22.7796 32.9993C22.9525 32.6689 23.8249 30.6154 23.9598 29.981C23.9772 29.899 24.0128 29.8268 24.0264 29.951C24.0357 30.0405 24.0489 32.6347 23.9767 33.4537C23.973 33.4968 23.9828 33.5423 24.0133 33.5732C24.0573 33.6182 24.1234 33.6369 24.1786 33.6501H24.181C24.4809 33.5498 24.8449 33.4758 25.1532 33.5273C25.1804 33.5235 25.2066 33.5179 25.2319 33.51C25.2483 33.4959 25.2638 33.4795 25.2741 33.4598C25.2985 33.4167 25.3106 33.3675 25.3214 33.3188C25.3224 33.3155 25.3228 33.3118 25.3238 33.3076C25.3388 33.2391 25.3509 33.1689 25.3584 33.0986C25.3627 33.0574 25.3655 33.0157 25.3683 32.974C25.372 32.9196 25.3744 32.8657 25.3758 32.8114C25.3786 32.7462 25.38 32.6811 25.3809 32.6155C25.3823 32.5406 25.3823 32.4651 25.3823 32.3897C25.3823 32.3058 25.3814 32.221 25.38 32.1372C25.3791 32.0458 25.3772 32.0762 25.3744 31.9844C25.3716 31.886 25.3678 31.7876 25.3636 31.6892C25.3589 31.5857 25.3542 31.4821 25.3481 31.3781C25.3416 31.2704 25.3355 31.1631 25.327 31.0553C25.3195 30.9447 25.3106 30.8342 25.3013 30.7231C25.291 30.6111 25.2802 30.4982 25.2689 30.3867C25.2568 30.2729 25.2436 30.1604 25.2296 30.0475C25.2155 29.935 25.2001 29.8231 25.1837 29.7111C25.1677 29.6005 25.1495 29.4899 25.1307 29.3794C25.112 29.2721 25.0918 29.2257 25.0693 29.1189C25.0487 29.0153 25.0253 28.9122 25.0009 28.8096C24.977 28.7112 24.9508 28.6128 24.9236 28.5163C24.9011 28.439 24.8772 28.3626 24.8519 28.2853C24.8468 28.2727 24.8266 28.1682 24.829 28.1542C24.8369 28.1162 24.8847 28.1438 24.9363 28.1335C24.9363 28.1335 24.9611 28.1293 24.9747 28.127C25.3055 28.082 25.8799 28.112 26.0097 28.1176C26.1376 28.1214 26.7912 28.1832 26.9754 28.2005C27.1586 28.2179 27.3802 28.2605 27.3699 27.7058C27.368 27.5577 27.3671 27.4696 27.368 27.3319V27.2757C27.3685 27.2405 27.3685 27.2063 27.3694 27.1726C27.3694 27.1524 27.3694 27.1337 27.3699 27.1145C27.3699 27.0957 27.3699 27.0765 27.3708 27.0587C27.3708 27.0419 27.3718 27.024 27.3718 27.0091C27.3722 26.9786 27.3732 26.9496 27.3746 26.9238C27.3746 26.9149 27.3746 26.9079 27.375 26.8989C27.375 26.8797 27.376 26.8605 27.3774 26.8441C27.3774 26.8357 27.3774 26.8268 27.3778 26.8188C27.3788 26.8029 27.3793 26.7907 27.3802 26.779C27.3811 26.7757 27.3811 26.7696 27.3811 26.7668C27.383 26.7495 27.3839 26.7312 27.3844 26.712C27.3882 26.5771 27.3708 26.3292 27.1145 26.2627C26.8189 26.1891 26.3002 26.1718 25.8331 26.2121C25.7679 26.2177 25.7534 26.2121 25.7736 26.1938L25.7745 26.1896C25.8748 26.1184 26.5485 25.7454 27.3202 25.0548C28.1683 24.2944 28.5736 23.8896 28.8327 23.3386C28.8327 23.3386 29.7609 21.538 29.7149 20.0124C29.7046 19.7037 29.7548 19.7299 29.9459 19.7355C30.0036 19.7369 30.2233 19.722 30.3414 19.6437C30.7345 19.5537 31.0831 18.2095 31.0831 18.2095C31.0831 18.2095 31.6744 16.1672 31.8182 15.3323C31.9452 14.5896 31.9147 14.1558 31.4621 13.9351L31.3862 13.892C31.3525 13.8728 31.3352 13.833 31.3459 13.7955C31.3544 13.7636 31.3637 13.7266 31.3679 13.6985C31.59 12.9292 31.986 11.9546 31.896 11.5601C31.8805 11.4467 31.7845 11.4102 31.7512 11.3877C31.7048 11.3558 31.5291 11.16 31.4804 11.0232C31.4729 11.0025 31.471 10.9819 31.4687 10.9608C31.3436 9.50745 30.8273 7.68485 29.289 6.09746C29.2872 6.09559 29.1836 6.00141 29.1204 5.94331C28.9887 5.82477 28.8205 5.67672 28.627 5.53194C28.2175 5.22599 27.8904 4.99078 27.2171 4.65485C27.1651 4.62908 26.6591 4.39903 25.9113 4.2163C25.8415 4.19756 25.7708 4.17882 25.7 4.16195C25.5904 4.13712 25.4189 4.10526 25.2235 4.07855C24.7625 4.00593 24.2517 3.96704 23.7195 4.0003C23.6567 4.00358 23.5822 4.00686 23.5625 4.0078C23.5307 4.00827 23.4979 4.00967 23.4651 4.01108C23.429 4.01202 23.3934 4.01295 23.3559 4.01483C23.2434 4.01998 23.0954 4.03638 22.9394 4.05887C22.6877 4.09588 22.4183 4.14555 22.252 4.18444C22.066 4.22989 21.8153 4.28189 21.5019 4.37232C21.373 4.4098 21.2432 4.44963 21.1144 4.4918C21.0788 4.50304 21.0422 4.51382 21.0062 4.526C20.867 4.57145 20.7274 4.61971 20.5859 4.66984C20.4833 4.70638 20.0475 4.89473 19.9524 4.93878C19.907 4.95986 19.8446 4.98657 19.7767 5.01374C19.4698 5.1112 19.4047 5.28924 19.3939 5.3867C19.3869 5.44948 19.3728 5.51133 19.3456 5.56849C18.9029 6.50977 17.8618 6.60067 17.4485 6.62081C17.3403 6.62597 17.2447 6.6419 17.2789 6.74732C17.367 7.01766 17.8547 7.52087 18.1523 7.6127C18.148 7.65533 17.8974 7.71015 17.8444 7.72421C17.7245 7.75513 17.2311 7.71156 17.2067 7.71671C17.2044 7.71671 17.2025 7.71765 17.2011 7.71765C16.6412 7.7645 16.4693 8.14589 16.4191 8.32628C16.4037 8.38203 16.4121 8.44294 16.4444 8.4912C16.5681 8.67955 16.6979 8.83276 16.7954 9.08108C16.7972 9.08389 16.7977 9.08717 16.7991 9.08952C16.8244 9.15511 16.8478 9.22727 16.868 9.30785C16.8797 9.41421 16.9645 9.52572 16.8572 9.73422C16.6665 10.1044 16.1895 10.2196 16.1183 10.5865C16.0162 11.1098 16.197 11.4514 16.3943 12.3144C16.5302 12.9067 16.6768 13.5186 16.7813 13.7959C16.786 13.8105 16.7785 13.8255 16.7626 13.8283C16.7204 13.8362 16.6482 13.8522 16.6239 13.8601C16.3479 13.9702 16.2603 14.1872 16.2294 14.6131C16.16 15.5539 16.8539 17.0054 17.0695 18.2489C17.1426 18.6687 17.3351 19.3406 17.6575 19.6156C17.731 19.6793 17.8866 19.7205 17.9831 19.7369C18.2347 19.7805 18.3439 19.6217 18.358 19.8742C18.3612 19.9262 18.379 20.0687 18.3814 20.1483C18.4245 21.0409 18.9029 21.9264 18.9029 21.9264ZM19.3353 6.98299C19.3906 6.89772 19.5232 6.77402 19.6563 6.67891C19.795 6.57911 20.479 6.06607 21.1144 5.87256C21.2325 5.83789 21.2629 5.82009 21.3379 5.80182C21.433 5.77745 21.5141 5.57223 21.3159 5.54178C21.1074 5.51226 21.023 5.52538 20.9115 5.52866C20.8009 5.53194 20.7475 5.4715 20.8276 5.38529C20.9101 5.29674 21.0568 5.20725 21.3159 5.10323C21.8819 4.87787 22.885 4.75792 23.3526 4.71622C23.9626 4.66328 24.0367 4.66562 24.4331 4.69608C24.8051 4.72419 25.097 4.79353 25.2347 4.8179C25.9357 4.9444 26.7425 5.26862 27.4598 5.66266C27.8366 5.88662 28.2006 6.13635 28.5394 6.4006C29.5669 7.20179 30.7471 8.725 30.5752 11.9345C30.5541 12.3135 30.5091 12.5234 30.4847 12.6148C30.459 12.708 30.3358 12.8664 30.2711 12.6569C30.0588 11.9701 29.7857 10.7598 29.1644 9.80403C29.0777 9.6705 28.9442 9.68315 28.9578 9.82371C28.962 9.88228 28.991 10.4942 28.976 10.6127C28.8753 11.4008 29.1166 11.0934 29.4727 11.9396C29.5823 12.201 29.7248 12.7188 29.7604 13.0519C29.7698 13.1358 29.7805 13.2332 29.7829 13.3265C29.7857 13.4441 29.7266 13.452 29.7266 13.452C29.4839 13.4516 29.059 13.3358 28.8299 13.3283C28.5698 13.3199 26.7627 13.3016 26.0837 13.3555C25.4039 13.4071 25.0333 13.6521 24.6481 13.967C24.5844 14.0194 24.494 14.0682 24.4424 14.0935C24.4171 14.1066 24.3886 14.1099 24.36 14.1052C24.329 14.1 24.2784 14.0906 24.1974 14.0742C24.032 14.0396 23.8315 14.0265 23.6689 14.0757C23.5072 14.1248 23.4304 14.1661 23.2556 14.0649C23.0064 13.9187 22.624 13.3372 21.2892 13.3265C20.5339 13.3199 19.542 13.3096 18.9586 13.3358C18.7698 13.3438 18.6714 13.3654 18.6231 13.3639C18.6189 13.3415 18.6175 13.311 18.6175 13.3049C18.6082 12.2395 19.303 12.4756 19.3822 12.1987C19.5808 11.509 19.6282 9.84901 20.8328 8.82995C21.4096 8.34314 21.7085 8.323 22.2436 8.323C22.8194 8.323 23.3812 8.47293 23.6679 8.61442C23.8961 8.72828 24.0095 8.80324 24.0995 8.73671C24.189 8.66877 24.4284 8.45137 24.5277 8.37641C24.6266 8.30051 24.5891 8.18197 24.4958 8.10466C24.4054 8.03157 23.5503 6.95628 22.2403 6.73935C21.9395 6.68969 21.7179 6.64424 21.4452 6.6433C21.2981 6.63768 21.1669 6.63674 20.8244 6.67891C20.323 6.73935 19.6671 7.01907 19.2449 7.1868C19.2219 7.16197 19.3096 7.02047 19.3353 6.98299ZM29.6596 13.9051C29.6058 13.9637 29.558 13.9281 29.446 13.9562C29.3593 13.9773 29.3007 14.0265 29.2206 14.0194C29.0941 14.0077 29.0313 13.8564 29.0993 13.7566C29.2042 13.6038 29.3523 13.7374 29.4713 13.7585C29.5299 13.7683 29.572 13.751 29.6306 13.772C29.6887 13.7931 29.6967 13.8465 29.6596 13.9051ZM27.8647 14.4411C27.8647 14.4411 27.6257 14.2776 27.5498 14.1455C27.5119 14.0799 27.5203 14.0251 27.6215 14.0241C27.9799 14.0204 28.3079 14.0119 28.4672 14.1455C28.5839 14.2439 28.5862 14.4477 28.5295 14.5798C28.4639 14.7302 28.3327 14.6871 28.2578 14.6763C28.1828 14.6655 27.8647 14.4411 27.8647 14.4411ZM28.0221 15.0797C27.9551 15.1139 27.6993 15.0282 27.6295 14.9884C27.488 14.9096 27.3872 14.8534 27.1975 14.6908C27.071 14.5849 26.8414 14.5348 26.624 14.5451C26.4581 14.5531 26.2918 14.5892 26.1639 14.6187C26.0383 14.6491 26.028 14.5348 26.0655 14.4917C26.1039 14.4481 26.281 14.2865 26.6666 14.1853C26.7228 14.1703 26.832 14.1755 26.8868 14.1811C27.048 14.1989 27.2406 14.3057 27.3793 14.4411C27.5175 14.5765 27.7986 14.8159 27.9504 14.9082C28.0216 14.9509 28.1828 14.9977 28.0221 15.0797ZM22.5036 17.7639C22.5439 17.8375 22.557 17.9617 22.5453 18.0127C22.5341 18.0765 22.3129 18.1589 22.1288 17.8839C21.9451 17.6098 22.0313 17.2739 22.1405 17.1417C22.3139 16.93 22.5786 17.0841 22.5406 17.1628C22.4076 17.4346 22.4666 17.6899 22.5036 17.7639ZM19.9552 14.7068C19.9993 14.6707 20.018 14.6707 20.1661 14.5892C20.2715 14.5306 20.3924 14.4589 20.5137 14.3802C20.733 14.2373 21.1491 14.0892 21.3262 14.0906C21.4541 14.093 21.6771 14.1478 21.7956 14.2771C21.9198 14.4121 21.954 14.5695 21.7924 14.5423C21.6317 14.5147 21.4611 14.4711 21.1528 14.5423C20.8075 14.621 20.5737 14.7532 20.4074 14.8281C20.2368 14.9068 20.0644 14.9256 20.0072 14.9228C19.9524 14.919 19.7954 14.8351 19.9552 14.7068ZM19.7284 14.3985C19.5644 14.5025 19.4033 14.6229 19.2814 14.7016C19.1315 14.8009 18.9225 14.7058 18.983 14.4969C19.0134 14.3947 19.1578 14.1347 19.4005 14.0883C19.4323 14.0817 19.5527 14.0588 19.6539 14.0466C19.7711 14.0344 19.8966 14.0236 19.9604 14.0204C20.1323 14.0133 20.1511 14.1511 20.0349 14.2228C19.9571 14.2706 19.8376 14.3291 19.7284 14.3985ZM16.9828 10.9655C17.1266 10.5771 17.3881 10.2463 17.5661 10.0125C17.7292 9.79841 17.6523 9.51635 17.5685 9.26334C17.515 9.03001 17.3651 8.78919 17.3426 8.725C17.3258 8.68096 17.3253 8.64488 17.3398 8.61302C17.3506 8.60599 17.359 8.60037 17.3703 8.59381L17.6856 8.56616C18.5885 8.45091 19.3845 8.13371 19.6254 7.9983C19.7434 7.93177 19.8695 7.88023 19.9979 7.83666C20.1483 7.78559 20.3043 7.73405 20.4603 7.7139C20.5788 7.69469 20.718 7.67548 20.8379 7.66283C21.0165 7.64222 21.299 7.76731 21.2357 7.8048C21.0849 7.89522 20.3835 8.05781 19.7659 8.79434C19.3883 9.24554 19.3002 9.52338 19.1727 9.73141C19.0434 9.93944 18.9404 9.9891 18.7581 10.1461C18.6695 10.221 18.4887 10.3799 18.4001 10.6324C18.3106 10.8868 17.9658 11.7761 17.9213 13.1868C17.9161 13.3508 17.8875 13.5242 17.7325 13.5837C17.7325 13.5837 17.731 13.5837 17.731 13.5842C17.6036 13.6357 17.5001 13.72 17.479 13.6287C17.3965 13.3185 17.2072 12.6504 17.128 12.2268C17.1027 12.0933 17.0732 11.9612 17.0414 11.83C16.9547 11.4687 16.9158 11.1487 16.9828 10.9655ZM17.7418 17.6468C17.4841 17.4749 17.4977 17.2504 17.4326 17.0288C17.2934 16.5603 17.144 15.9962 17.0146 15.5159C16.9364 15.2254 16.9172 14.5442 17.3108 14.5442C17.5094 14.5442 17.6575 14.607 17.7212 14.7934C17.8618 15.2095 17.5961 15.1374 17.664 15.6293C17.7123 15.9765 17.7788 16.319 17.8885 16.9098C17.9391 17.1825 18.0281 17.8375 17.7891 17.6777L17.7418 17.6468ZM18.7314 14.011C18.6513 14.0199 18.5833 13.9707 18.4962 13.952C18.395 13.9295 18.3322 13.9609 18.29 13.9051C18.2535 13.847 18.26 13.7931 18.3177 13.7716C18.3762 13.7496 18.4179 13.7655 18.4765 13.7547C18.596 13.7317 18.7408 13.5959 18.8485 13.7467C18.9179 13.8451 18.8588 13.9974 18.7314 14.011ZM18.9174 16.8765C18.8813 16.7229 18.9497 16.4923 19.3124 16.7247C19.3709 16.7618 19.5415 16.84 19.7308 16.8939C19.8456 16.9271 19.9196 16.8789 19.9524 16.795C19.9857 16.7126 20.0794 16.5481 19.9182 16.4685C19.7575 16.3883 19.3602 16.319 19.1334 15.7605C19.0922 15.6607 19.1606 15.5459 19.2248 15.5164C19.2894 15.4878 19.3686 15.5023 19.4431 15.5726C19.5176 15.642 19.6755 15.7956 19.8179 15.8013C19.9487 15.8069 19.9697 15.7544 19.9964 15.723C20.1061 15.5998 20.4209 15.1397 21.0741 15.2189C21.3435 15.2521 21.5918 15.3121 21.6832 15.3187C21.7474 15.3229 21.9264 15.3309 22.0983 15.2985C22.2942 15.2624 22.5861 15.2015 22.4432 15.3665C22.327 15.5005 22.23 15.5562 22.3317 15.7019C22.3368 15.7094 22.342 15.7165 22.3471 15.723C22.4385 15.8523 22.4408 16.0243 22.3476 16.1531L22.3368 16.1686C22.1925 16.3565 21.894 16.5725 21.2765 16.6118C20.9954 16.6296 20.978 16.6189 20.9724 16.78C20.9701 16.8419 20.971 16.8747 20.9794 16.9178C20.9968 16.9988 21.0483 17.0321 21.2432 17.0443C21.3847 17.0532 21.6443 17.0255 21.6443 17.0255C21.7076 17.0059 21.7825 17.0462 21.7422 17.1C21.7357 17.108 21.7099 17.146 21.7052 17.1525C21.5656 17.3334 21.5211 17.4988 21.5084 17.5976C21.4977 17.6815 21.4489 17.756 21.3754 17.7949C21.374 17.7949 21.373 17.7953 21.3726 17.7963C21.2821 17.8427 20.9181 17.9204 20.6313 18.1575C20.3469 18.3937 19.75 18.5886 19.4937 18.2981C19.2369 18.0085 19.0284 17.3596 18.9174 16.8765ZM21.6012 23.7026C21.09 23.7181 19.7551 22.9122 19.1723 20.6248C19.0209 20.0368 19.3925 19.5594 19.623 19.4769C19.7589 19.4272 19.8301 19.4113 19.876 19.4057C19.9234 19.3996 20.1562 19.401 20.1473 19.6634C20.1393 19.8766 20.3165 21.6504 20.7794 22.2919C20.8942 22.4516 21.0005 22.4573 21.053 22.3167C21.1017 22.186 21.1823 22.0173 21.2076 21.9531C21.2264 21.9077 21.3955 21.65 21.4452 21.8458C21.5515 22.2609 21.8003 23.1165 21.9048 23.3367C22.0791 23.7026 21.7928 23.697 21.6012 23.7026ZM21.9212 19.9956C21.2549 19.9876 20.9462 19.7393 20.8984 19.6648C20.8525 19.5936 20.9298 19.5369 20.9991 19.5149C21.1566 19.4647 21.4367 19.3232 21.5501 19.237C21.6645 19.1522 21.9784 18.9564 22.1367 18.8542C22.2117 18.806 22.6404 18.619 22.8906 18.7938C23.2669 19.0562 23.6187 19.2314 24.262 19.1925C24.6758 19.1672 24.6669 18.8327 25.0037 18.7263C25.3078 18.6303 25.3664 18.5562 25.4615 18.5005C25.5843 18.4761 25.6756 18.4447 25.8082 18.5689C25.9774 18.7263 26.0388 18.85 26.2346 19.0712C26.5017 19.3738 26.7973 19.5149 26.8887 19.5322C26.9801 19.5509 27.0447 19.625 27.0466 19.6554C27.0471 19.6859 27.0096 19.7796 26.7397 19.8564C25.8387 20.1151 24.8627 19.9497 24.36 19.7487C24.1051 19.647 23.8572 19.6189 23.578 19.7566C23.2959 19.8948 22.5439 20.0035 21.9212 19.9956ZM25.2905 20.5527C25.1373 20.6084 24.6936 20.7115 24.4785 20.7246C24.262 20.7368 23.5747 20.7836 23.4599 20.778C23.3184 20.7701 23.1272 20.7007 22.9717 20.5583C22.9398 20.5297 22.9061 20.4304 23.0331 20.4285C23.2687 20.4238 23.6665 20.2982 25.0361 20.4144C25.1827 20.4271 25.2521 20.4327 25.2867 20.4365C25.3228 20.4402 25.4437 20.4983 25.2905 20.5527ZM31.1459 15.2545C30.9655 16.2136 30.7635 16.6952 30.6337 17.2879C30.4993 17.9031 30.235 18.8032 29.9783 18.8271C29.7182 18.9044 29.6142 18.6045 29.4483 18.8271C29.3485 18.9592 29.2722 19.1335 29.1836 19.2459C29.1274 19.3195 29.0721 19.4844 29.0707 19.5739C29.0707 19.7473 29.0613 20.3062 28.9058 21.0399C28.6724 22.1475 28.2475 22.9534 27.8061 23.4627C26.9613 24.4382 26.1695 24.5947 26.0758 24.6448C25.9544 24.709 25.7708 24.6706 25.7108 24.6416C25.6499 24.6144 25.603 24.5413 25.4985 24.4387C25.3908 24.3384 25.3533 24.4916 25.3495 24.5305C25.3453 24.5675 25.4044 25.0281 25.2867 25.2371C25.0333 25.6864 24.7896 25.7253 24.6542 26.2842C24.6078 26.4731 24.6397 26.7584 24.4143 26.6291C23.8629 26.3138 23.0734 25.4615 22.9098 24.635C22.8606 24.3834 22.9066 24.1032 23.0598 23.6239C23.1488 23.3428 23.212 23.0303 23.212 22.8503C23.212 22.5303 23.0874 22.2595 23.212 22.2319C23.4435 22.1808 23.5489 22.7796 23.6567 22.7173C23.8436 22.6095 23.7045 21.977 23.7045 21.977C23.7045 21.977 23.6276 21.7971 23.2997 21.7207C23.1108 21.6767 23.0518 21.5352 23.2528 21.4368C23.4027 21.3632 23.578 21.2662 23.7809 21.2967C25.1401 21.4888 25.5309 21.2156 26.0805 21.0676C26.1892 21.0385 26.2529 21.0263 26.3372 21.0662C26.4206 21.1051 26.6465 21.2288 26.6924 21.3445C26.7388 21.4593 26.691 21.9105 26.7627 22.2502C26.8362 22.5908 27.0761 22.2811 27.1351 22.1461C27.1951 22.0126 27.2574 21.6828 27.2696 21.5994C27.2827 21.5155 27.353 21.165 27.4786 21.0606C27.7274 20.8539 27.815 20.5822 27.8553 20.4758C27.8965 20.3699 27.9617 20.042 27.9504 19.5622C27.9378 19.0843 27.852 19.0327 27.7363 18.9297C27.622 18.8275 27.4847 18.8472 27.1937 18.5806C26.9337 18.3426 26.72 17.9575 26.5321 17.7152C26.3438 17.4735 26.0317 17.2134 25.6756 17.1267C25.32 17.0405 25.4676 17.3685 25.4868 17.4603C25.5013 17.5255 25.5852 17.816 25.4667 17.912C25.3505 18.0071 24.6327 18.4906 23.9917 18.3229C23.228 18.1233 22.9647 17.6979 22.9487 17.2879C22.9379 16.9965 23.0771 16.7163 23.2514 16.3827C23.3526 16.1873 23.3934 15.8617 23.4346 15.5497C23.4674 15.2999 23.5344 14.9387 23.5888 14.8103C23.6276 14.7175 23.7195 14.6173 23.9266 14.6285C24.1318 14.6402 24.2663 14.7424 24.3037 14.919C24.4359 15.5333 24.6523 15.6883 24.7264 15.738C24.7999 15.7872 24.9386 15.6883 24.993 15.6523C25.0478 15.6171 25.1865 15.4766 25.1429 15.4011C25.0768 15.2845 25.0398 15.2147 25.0253 15.1458C25 15.0291 25.1462 15.0436 25.1757 15.0666C25.4147 15.255 25.6405 15.2718 26.0542 15.3402C26.7776 15.4611 26.8817 15.1945 27.3788 15.2812C27.443 15.292 27.5657 15.3463 27.6056 15.4203C27.6388 15.4841 27.6988 15.6307 27.7592 15.6565C27.8202 15.6804 27.9673 15.6893 28.0432 15.7029C28.1486 15.7207 28.3374 15.7085 28.3056 15.9029C28.2245 16.4244 27.6238 16.5683 27.3427 16.616C27.2265 16.6362 27.1726 16.6456 27.1539 16.662C27.0934 16.7154 27.0916 16.8789 27.1614 16.9843C27.211 17.0588 27.4378 17.063 27.7494 17.0031C28.0736 16.9407 28.3847 16.7847 28.6312 16.4005C28.8922 15.9948 29.0351 15.1003 29.0655 14.9335C29.0951 14.7667 29.1621 14.4875 29.2539 14.4299C29.3453 14.3732 29.7683 14.2439 29.8283 14.2546C29.8991 14.2668 29.9501 14.301 29.9843 14.465C30.0176 14.6304 29.9553 15.6153 29.9539 15.7642C29.9525 15.9231 30.034 15.9217 30.079 15.9011C30.1779 15.8551 30.4416 15.6794 30.5007 15.4766C30.5447 15.3257 30.4182 15.106 30.4819 14.8984C30.5808 14.5732 30.6792 14.4866 30.7462 14.4931C31.1594 14.5329 31.2447 14.7138 31.1459 15.2386" fill="black"/>
    <path fill-rule="evenodd" clip-rule="evenodd" d="M36.9001 35.3823C36.3496 35.2314 35.651 35.0913 34.7776 35.0918C30.2168 35.0927 29.06 37.6678 28.8726 39.4159C28.6622 41.3791 30.021 43.3047 33.3692 43.3043C34.7786 43.3043 35.6988 43.0587 36.0268 42.9547C36.1092 42.9285 36.1697 42.8592 36.1856 42.7748L36.3739 41.7843C36.4025 41.6349 36.2615 41.5098 36.1172 41.5552C35.7531 41.6709 35.1037 41.8293 34.2828 41.8293C32.6832 41.8298 31.5273 40.8684 31.6731 39.2149C31.8146 37.6139 32.8955 36.3943 34.3812 36.3943C35.2747 36.3943 35.6702 36.8619 35.6402 37.4874C35.6402 37.4874 35.6402 37.4972 35.6388 37.5225C35.6332 37.6369 35.7241 37.7329 35.8379 37.7329H36.4452C36.5384 37.7329 36.619 37.6678 36.6401 37.5769L37.0655 35.6592C37.0932 35.5369 37.0201 35.4156 36.9001 35.3823Z" fill="black"/>
    <path fill-rule="evenodd" clip-rule="evenodd" d="M18.0284 35.3864L17.9178 35.8868C17.8925 35.9983 17.9586 36.1103 18.0682 36.1436L18.0687 36.144C18.2617 36.2176 18.3044 36.4036 18.1366 36.5423L15.3348 38.8704C15.3348 38.8704 15.3343 38.8704 15.3343 38.8695L15.815 36.6758C15.897 36.3394 16.1641 36.2007 16.3332 36.1459C16.3426 36.1426 16.352 36.1398 16.3613 36.137C16.4358 36.114 16.4911 36.0522 16.5085 35.9768L16.6232 35.4572C16.6509 35.3339 16.5572 35.2168 16.4307 35.2168H12.8187C12.717 35.2168 12.6285 35.2875 12.6064 35.3869L12.4898 35.9135C12.4654 36.0208 12.5263 36.129 12.6303 36.1646C12.6514 36.1717 12.6645 36.1759 12.6664 36.1768C12.8927 36.2654 13.1556 36.4654 13.0445 36.9902L12.1833 40.9324C11.958 42.0087 11.593 42.2289 11.2449 42.2687C11.2416 42.2696 11.2378 42.2701 11.2341 42.2701C11.1408 42.2804 11.0645 42.3488 11.0443 42.4407L10.9328 42.9462C10.9038 43.0765 11.0031 43.2001 11.1366 43.2001H14.9332C15.0265 43.2001 15.1066 43.135 15.1267 43.0446L15.2584 42.4538C15.279 42.3577 15.227 42.2603 15.1356 42.2242C15.1277 42.2209 15.1197 42.2176 15.1108 42.2139C14.9187 42.1361 14.6568 41.9698 14.7238 41.6568L15.1651 39.6412C15.1651 39.6402 15.1661 39.6402 15.1661 39.6412C16.6776 42.4046 17.1785 43.2001 18.9927 43.2001H20.6316C20.7244 43.2001 20.8045 43.136 20.8247 43.0455L20.9395 42.533C20.9685 42.4027 20.8715 42.2762 20.7375 42.2734C20.3275 42.2673 20.1261 42.1722 19.718 41.6474L17.6147 38.8001C17.6137 38.8001 17.6137 38.7997 17.6147 38.7997L20.3486 36.5259C20.7155 36.2387 21.1625 36.1576 21.4103 36.1248C21.4113 36.1248 21.4206 36.1239 21.4356 36.1225C21.5228 36.1131 21.594 36.0517 21.6127 35.9665L21.7247 35.4609C21.7524 35.3353 21.6568 35.2168 21.5289 35.2168H18.2402C18.138 35.2168 18.05 35.2875 18.0284 35.3864Z" fill="black"/>
    <path fill-rule="evenodd" clip-rule="evenodd" d="M28.1453 37.5759H28.7844C28.8786 37.5759 28.9587 37.5107 28.9789 37.4198L29.4146 35.4595C29.4423 35.3344 29.3471 35.2168 29.2192 35.2168H22.4933C22.3912 35.2168 22.3022 35.2875 22.2797 35.3873L22.1635 35.913C22.1414 36.0156 22.1986 36.1192 22.2975 36.1543C22.3045 36.1567 22.3125 36.1595 22.3195 36.1623C22.5416 36.2471 22.8489 36.4608 22.7154 36.9879L21.3974 42.9579C21.3698 43.0821 21.4644 43.1992 21.5914 43.1992H24.6168C24.71 43.1992 24.7901 43.135 24.8103 43.0441L24.9424 42.4481C24.9621 42.3601 24.9171 42.2706 24.8351 42.2336C24.8257 42.2293 24.8154 42.2247 24.8051 42.2204C24.6139 42.1267 24.3277 41.9098 24.4237 41.4914C24.434 41.4352 24.7198 40.1401 24.7198 40.1401H27.2921C27.3863 40.1401 27.4669 40.075 27.4875 39.9841L27.7293 38.8934C27.7569 38.7683 27.6623 38.6507 27.5344 38.6507H25.0502L25.514 36.5357L27.249 36.5343C27.8103 36.5343 27.9813 36.8267 27.9481 37.3266C27.9481 37.3266 27.9481 37.3332 27.9462 37.3533C27.9331 37.4719 28.0254 37.5759 28.1453 37.5759Z" fill="black"/>
</svg>
